<?xml version="1.0" encoding="UTF-8" standalone="no"?>
<svg width="55px" height="61px" viewBox="0 0 55 61" version="1.1" xmlns="http://www.w3.org/2000/svg" xmlns:xlink="http://www.w3.org/1999/xlink" xmlns:sketch="http://www.bohemiancoding.com/sketch/ns">
    <!-- Generator: Sketch 3.2.2 (9983) - http://www.bohemiancoding.com/sketch -->
    <title>noun_23364_cc</title>
    <desc>Created with Sketch.</desc>
    <defs></defs>
    <g id="Page-1" stroke="none" stroke-width="1" fill="none" fill-rule="evenodd" sketch:type="MSPage">
        <g id="noun_23364_cc" sketch:type="MSLayerGroup" fill="#248FF8">
            <path d="M46,46 C57.9456699,34.1131799 57.9456699,15.0905439 46,3 C45.4132017,2.65445971 44.0855759,2.65445971 43,3 L41,6 C36.3187647,2.30132531 30.6563605,0 24,0 C10.9739074,0 3.55271368e-15,10.8886414 3.55271368e-15,24 C3.55271368e-15,30.4181641 2.31834665,36.0335962 6,40 L3,43 C2.64325508,43.7737865 2.64325508,45.0295959 3,46 C8.5785824,50.9188064 15.268697,53.9502073 22,54 L22,57 L13,57 C12.0216121,57.0321977 11.1258645,57.9209854 11,59 C11.1258645,60.1112123 12.0216121,61 13,61 L36,61 C36.9006007,61 37.7963483,60.1112123 38,59 C37.7963483,57.9209854 36.9006007,57.0321977 36,57 L26,57 L26,55 C33.9064445,54.1386779 40.8504876,51.0755346 46,46 L46,46 Z M24,5 C35.2520931,5 44,13.7481316 44,25 C44,35.2518684 35.2530947,44 25,44 C13.7479069,44 5,35.25287 5,25 C5,13.7481316 13.7479069,5 24,5 L24,5 Z M9,43 C13.4683956,46.8768823 18.8146313,48.9347956 25,49 C38.0324765,48.9347956 48.9345069,38.0324239 49,25 C48.9345069,18.81497 46.8776512,13.4685669 43,9 L45,8 C53.5169946,18.223022 53.0670885,33.6990862 43,43 C33.6982814,53.0665134 18.2227018,53.5174269 8,45 L9,43 L9,43 Z" id="Shape" sketch:type="MSShapeGroup"></path>
        </g>
    </g>
</svg>