<?xml version="1.0" encoding="utf-8"?>
<!-- Generator: Adobe Illustrator 16.0.0, SVG Export Plug-In . SVG Version: 6.00 Build 0)  -->
<!DOCTYPE svg PUBLIC "-//W3C//DTD SVG 1.1//EN" "http://www.w3.org/Graphics/SVG/1.1/DTD/svg11.dtd">
<svg version="1.1" id="Layer_1" xmlns="http://www.w3.org/2000/svg" xmlns:xlink="http://www.w3.org/1999/xlink" x="0px" y="0px"
	 width="83.718px" height="100px" viewBox="8.808 0.001 83.718 100" enable-background="new 8.808 0.001 83.718 100"
	 xml:space="preserve">
<path d="M87.778,86.16c0.044-0.08,0.096-0.154,0.135-0.234c0.134-0.275,0.245-0.564,0.33-0.871c0.004-0.012,0.011-0.021,0.013-0.035
	l4.081-14.927c0.771-2.819-0.892-5.732-3.713-6.504c-2.817-0.773-5.734,0.891-6.505,3.712l-0.709,2.594L67.833,46.099l9.665-5.515
	C87.9,34.649,91.535,21.359,85.6,10.958C79.667,0.552,66.374-3.083,55.972,2.849c-10.403,5.938-14.035,19.231-8.101,29.63
	l5.515,9.667L41.811,48.75L29.188,26.625l2.53,0.691c0.469,0.128,0.938,0.189,1.401,0.189c2.326,0,4.461-1.545,5.105-3.899
	c0.771-2.822-0.89-5.734-3.712-6.507l-14.928-4.084c-0.217-0.059-0.433-0.099-0.649-0.13c-0.137-0.02-0.273-0.039-0.41-0.047
	c-2.461-0.16-4.771,1.418-5.447,3.888c-0.001,0.001-0.001,0.003-0.001,0.005L8.996,31.659c-0.771,2.822,0.892,5.734,3.712,6.505
	c0.468,0.128,0.938,0.189,1.399,0.189c2.326,0,4.462-1.548,5.105-3.901l0.728-2.66L32.61,53.999l-6.228,3.431l-3.49,1.992
	c-5.039,2.874-8.659,7.537-10.189,13.134c-1.528,5.599-0.789,11.454,2.087,16.494c4.002,7.017,11.349,10.951,18.901,10.951
	c3.645,0,7.34-0.918,10.727-2.85c10.402-5.936,14.038-19.226,8.104-29.628l-5.462-9.576l11.573-6.602l13.579,23.801l-2.599-0.711
	c-2.815-0.772-5.733,0.891-6.506,3.713c-0.771,2.821,0.893,5.732,3.713,6.504l14.93,4.083c0.303,0.082,0.605,0.127,0.908,0.156
	c0.068,0.006,0.136,0.01,0.204,0.014c0.096,0.004,0.192,0.018,0.286,0.018c0.14,0,0.272-0.021,0.41-0.033
	c0.104-0.008,0.207-0.012,0.311-0.023c0.271-0.037,0.536-0.1,0.796-0.176c0.049-0.016,0.098-0.021,0.145-0.037
	c0.312-0.104,0.607-0.238,0.896-0.396c0.021-0.013,0.046-0.019,0.065-0.029c0.062-0.032,0.107-0.082,0.166-0.116
	c0.201-0.125,0.395-0.261,0.576-0.409c0.09-0.074,0.174-0.149,0.258-0.229c0.154-0.146,0.3-0.301,0.437-0.465
	c0.071-0.086,0.146-0.171,0.212-0.261C87.551,86.561,87.668,86.363,87.778,86.16z M39.169,87.95
	c-5.333,3.039-12.142,1.178-15.181-4.147c-1.474-2.583-1.854-5.584-1.069-8.453c0.784-2.862,2.637-5.255,5.221-6.727l3.378-1.932
	l3.912-2.106l2.428-1.387l5.461,9.574C46.36,78.102,44.499,84.91,39.169,87.95z M57.072,27.231
	c-3.041-5.329-1.179-12.139,4.148-15.181c1.733-0.991,3.626-1.459,5.492-1.459c3.87,0,7.638,2.019,9.686,5.612
	c1.475,2.583,1.854,5.583,1.068,8.449c-0.783,2.868-2.638,5.256-5.22,6.729l-9.665,5.515L57.072,27.231z"/>
</svg>
